<svg width="109" height="126" viewBox="0 0 109 126" fill="none" xmlns="http://www.w3.org/2000/svg">
<path d="M60.9278 125.331C87.0444 125.331 108.216 120.023 108.216 113.477C108.216 106.93 87.0444 101.623 60.9278 101.623C34.8111 101.623 13.6394 106.93 13.6394 113.477C13.6394 120.023 34.8111 125.331 60.9278 125.331Z" fill="#EFEFEF"/>
<path d="M103.346 15.9488C100.652 12.8673 97.6139 10.1043 94.2912 7.71376C91.4544 5.59217 88.3207 3.89995 84.9908 2.69156C82.0654 1.68542 74.8448 -0.588944 75.1154 4.67C75.386 9.92894 82.0484 14.3001 85.7179 16.8958C89.2351 19.4322 94.7985 24.2769 99.491 23.6597C101.021 23.4737 101.106 21.8757 100.708 20.7005C99.863 18.2655 97.9691 16.38 95.9652 14.782C92.7264 12.2127 89.1064 10.1645 85.2359 8.71143C82.904 7.71781 80.3624 7.31696 77.8379 7.54466C75.8341 7.83213 73.6104 9.23564 73.6865 11.2479C73.6865 12.5584 74.6758 13.6491 75.6227 14.5707C79.6636 18.4643 84.493 21.4455 89.7847 23.313C90.8838 23.6935 92.1605 24.0148 93.1667 23.406C93.667 23.0192 94.0254 22.4778 94.186 21.8661C94.3466 21.2544 94.3003 20.6068 94.0544 20.0241C92.5579 15.8474 86.8931 13.5899 82.9531 12.7021C79.0131 11.8144 72.2069 13.6237 74.3967 18.8911C75.6891 21.6375 77.6094 24.0414 80.0023 25.9087C81.1343 26.9232 82.4644 27.6918 83.9085 28.1661C85.9293 28.7073 87.9754 28.107 86.6733 25.8326C85.7631 24.4135 84.4584 23.2909 82.9193 22.6028C77.7111 20.1678 73.3145 23.9641 70.981 28.4621" stroke="white" stroke-width="1.69098" stroke-linecap="round" stroke-linejoin="round"/>
<path d="M84.0646 95.6967C84.2856 92.804 83.6499 89.4615 82.2401 86.0338C89.1991 84.6377 94.5968 80.8424 95.5917 75.353L95.6185 75.3173L95.6459 75.1519C96.2671 71.402 94.6708 67.686 91.6823 64.5773C88.8902 61.673 84.842 59.2477 80.0643 57.723C85.2062 51.6377 86.8378 44.341 82.9385 39.3201C79.1367 34.4221 71.395 33.406 63.6355 35.7521C61.3094 30.258 56.9239 26.1608 51.311 25.2321C44.5817 24.1036 38.0799 27.8266 34.0904 34.0613C28.3585 31.9336 22.2511 32.0816 17.6169 35.1784C11.886 38.9454 9.96557 46.0015 11.7144 53.1576C6.20938 55.6026 2.16003 60.0009 1.23789 65.5855L1.2378 65.586C-0.0707754 73.5501 5.33512 81.2511 13.7885 85.1825C11.1617 89.7322 10.6167 94.4209 13.2241 97.8204L13.2267 97.8237C14.9185 100.002 17.6221 101.204 20.7874 101.555C23.7759 101.887 27.2297 101.47 30.7867 100.358C33.2564 107.021 38.7981 112.123 45.919 113.315C54.4828 114.754 62.7639 110.05 66.8502 102.274C71.7275 104.749 76.7009 105.343 80.1783 103.049C82.579 101.468 83.8259 98.8201 84.0646 95.6967Z" fill="#242427" stroke="#EFEFEF" stroke-width="1.37151" stroke-miterlimit="10" stroke-linecap="round"/>
<path d="M65.4416 65.8506C68.6837 65.7057 71.1386 61.712 70.9248 56.9305C70.711 52.1491 67.9095 48.3904 64.6674 48.5354C61.4253 48.6803 58.9704 52.674 59.1842 57.4555C59.398 62.2369 62.1995 65.9956 65.4416 65.8506Z" fill="white"/>
<path d="M61.447 77.7203C56.2725 78.236 51.7661 75.5643 51.394 71.8018C51.022 68.0394 54.9028 64.5053 60.0857 63.9895C65.2686 63.4738 69.7666 66.1455 70.1386 69.9079C70.5106 73.6704 66.6298 77.1876 61.447 77.7203Z" fill="white" stroke="#242427" stroke-width="1.69098" stroke-miterlimit="10"/>
<path d="M70.156 70.0525C67.6195 72.0648 64.4658 68.4884 60.6611 68.8604C56.8564 69.2324 55.5374 73.2654 50.8872 71.9549" stroke="#242427" stroke-width="1.69098"/>
<path d="M62.0544 70.9571L64.5908 69.748L57.0237 70.5005L59.7293 71.1938C60.5084 71.3857 61.3299 71.3021 62.0544 70.9571Z" fill="#242427" stroke="#242427" stroke-width="1.69098" stroke-linecap="round" stroke-linejoin="round"/>
<path d="M69.8419 98.5956L74.5428 93.6918L84.063 111.447C84.4856 112.495 85.132 113.439 85.9571 114.211C86.7823 114.984 87.7662 115.567 88.8401 115.92C94.0229 117.365 100.068 111.98 102.368 103.871C104.668 95.7632 102.275 88.027 97.0921 86.5728C91.9092 85.1185 85.8555 90.5127 83.5642 98.6125L77.4428 89.8871C77.133 89.4436 76.7242 89.0784 76.2487 88.8203C75.7732 88.5623 75.2442 88.4186 74.7035 88.4005C74.1628 88.3825 73.6253 88.4906 73.1337 88.7164C72.6421 88.9421 72.2097 89.2792 71.871 89.7011L66.1555 96.7947" fill="white"/>
<path d="M69.8419 98.5956L74.5428 93.6918L84.063 111.447C84.4856 112.495 85.132 113.439 85.9571 114.211C86.7823 114.984 87.7662 115.567 88.8401 115.92C94.0229 117.365 100.068 111.98 102.368 103.871C104.668 95.7632 102.275 88.027 97.0921 86.5728C91.9092 85.1185 85.8555 90.5127 83.5642 98.6125L77.4428 89.8871C77.133 89.4436 76.7242 89.0784 76.2487 88.8203C75.7732 88.5623 75.2442 88.4186 74.7035 88.4005C74.1628 88.3825 73.6253 88.4906 73.1337 88.7164C72.6421 88.9421 72.2097 89.2792 71.871 89.7011L66.1555 96.7947" stroke="#242427" stroke-width="1.69098" stroke-linecap="round" stroke-linejoin="round"/>
<path d="M86.9311 109.789C85.3162 103.279 88.546 91.4168 95.7834 89.3115" stroke="#242427" stroke-width="1.69098" stroke-linecap="round" stroke-linejoin="round"/>
<path d="M73.7551 92.3389L75.4207 95.408" stroke="#242427" stroke-width="1.69098" stroke-linecap="round" stroke-linejoin="round"/>
<path fill-rule="evenodd" clip-rule="evenodd" d="M83.2347 103.771C83.2347 103.771 82.7527 102.697 83.2769 99.4756L83.2347 103.771Z" fill="white"/>
<path d="M83.2347 103.771C83.2347 103.771 82.7527 102.697 83.2769 99.4756" stroke="#242427" stroke-width="1.69098" stroke-linecap="round" stroke-linejoin="round"/>
<path d="M51.3315 100.118L55.4237 95.0449C55.7632 94.623 56.1963 94.2858 56.6886 94.0601C57.1809 93.8344 57.719 93.7263 58.2602 93.7443C58.8015 93.7624 59.3312 93.9061 59.8074 94.1641C60.2836 94.4221 60.6932 94.7873 61.0039 95.2309L67.1168 103.931C69.3912 95.8312 75.428 90.4031 80.6447 91.8912C85.8614 93.3793 88.1949 101.09 85.929 109.19C83.6631 117.29 77.6094 122.718 72.4011 121.238C71.3272 120.885 70.3433 120.302 69.5182 119.53C68.6931 118.757 68.0467 117.814 67.6241 116.765L58.1039 99.0102L54.4767 102.79C54.1674 103.114 53.7621 103.33 53.3206 103.406C52.8791 103.482 52.4248 103.414 52.0248 103.212C51.7598 103.07 51.5285 102.872 51.3467 102.633C51.1648 102.393 51.0367 102.117 50.9709 101.824C50.9051 101.53 50.9033 101.226 50.9655 100.931C51.0277 100.637 51.1525 100.36 51.3315 100.118Z" fill="white" stroke="#242427" stroke-width="1.69098" stroke-linecap="round" stroke-linejoin="round"/>
<path d="M70.5363 115.201C68.9215 108.691 72.1512 96.8289 79.3887 94.7236" stroke="#242427" stroke-width="1.69098" stroke-linecap="round" stroke-linejoin="round"/>
<path d="M57.3606 97.751L59.0262 100.82" stroke="#242427" stroke-width="1.69098" stroke-linecap="round" stroke-linejoin="round"/>
<path fill-rule="evenodd" clip-rule="evenodd" d="M66.8491 109.181C66.8491 109.181 66.3587 108.107 66.8491 104.886V109.181Z" fill="white"/>
<path d="M66.8491 109.181C66.8491 109.181 66.3587 108.107 66.8491 104.886" stroke="#242427" stroke-width="1.69098" stroke-linecap="round" stroke-linejoin="round"/>
<path d="M72.2666 58.8501C67.4585 62.0573 62.7717 61.691 58.2061 57.751" stroke="#353538" stroke-width="1.69098" stroke-miterlimit="10"/>
<path d="M53.6906 66.375C56.9327 66.2301 59.3876 62.2364 59.1738 57.455C58.9601 52.6735 56.1585 48.9149 52.9164 49.0598C49.6744 49.2048 47.2194 53.1984 47.4332 57.9799C47.647 62.7613 50.4485 66.52 53.6906 66.375Z" fill="white"/>
<path d="M46.0059 59.6861C50.9492 62.6904 55.6135 62.1267 59.9988 57.9951" stroke="#353538" stroke-width="1.69098" stroke-miterlimit="10"/>
<path d="M60.7661 78.052C66.1478 77.8932 70.4174 74.6126 70.3027 70.7246C70.188 66.8366 65.7323 63.8135 60.3507 63.9723C54.9691 64.131 50.6994 67.4116 50.8142 71.2996C50.9289 75.1876 55.3845 78.2108 60.7661 78.052Z" fill="white" stroke="#353538" stroke-width="1.69098" stroke-miterlimit="10"/>
<path d="M51.9177 74.4231C53.1435 73.257 54.4768 72.2096 55.9 71.2948C57.4087 70.1484 59.1776 69.3932 61.049 69.0965C63.7462 68.8429 66.3756 70.2295 68.6585 71.8021C69.1082 72.0988 69.5324 72.4325 69.9267 72.7998" stroke="#353538" stroke-width="1.69098" stroke-miterlimit="10"/>
</svg>
