<svg width="32" height="32" viewBox="0 0 32 32" fill="none" xmlns="http://www.w3.org/2000/svg">
<rect width="32" height="32" rx="16" fill="#3F3F43"/>
<path d="M20.7207 12.6281L17.3488 16L20.7207 19.3719C20.8995 19.5508 21 19.7933 21 20.0463C21 20.2992 20.8995 20.5418 20.7207 20.7207C20.5418 20.8995 20.2992 21 20.0463 21C19.7933 21 19.5508 20.8995 19.3719 20.7207L16 17.3488L12.6281 20.7207C12.4492 20.8995 12.2067 21 11.9537 21C11.7008 21 11.4582 20.8995 11.2793 20.7207C11.1005 20.5418 11 20.2992 11 20.0463C11 19.7933 11.1005 19.5508 11.2793 19.3719L14.6512 16L11.2793 12.6281C11.1005 12.4492 11 12.2067 11 11.9537C11 11.7008 11.1005 11.4582 11.2793 11.2793C11.4582 11.1005 11.7008 11 11.9537 11C12.2067 11 12.4492 11.1005 12.6281 11.2793L16 14.6512L19.3719 11.2793C19.5508 11.1005 19.7933 11 20.0463 11C20.2992 11 20.5418 11.1005 20.7207 11.2793C20.8995 11.4582 21 11.7008 21 11.9537C21 12.2067 20.8995 12.4492 20.7207 12.6281Z" fill="#8C8C8E"/>
</svg>
