<svg width="32" height="32" viewBox="0 0 32 32" fill="none" xmlns="http://www.w3.org/2000/svg">
<rect width="32" height="32" rx="16" fill="#3F3F43"/>
<path fill-rule="evenodd" clip-rule="evenodd" d="M19.574 16.6906C19.5953 16.3109 19.5953 15.9111 19.5953 15.5315H19.5958V12.3533C19.5958 12.2548 19.5975 12.0749 19.5995 11.8561C19.6051 11.2375 19.6136 10.308 19.5958 10.0275C19.572 9.68448 19.5094 9.3448 19.4092 9.01426C18.9823 7.57074 17.5876 6.57227 15.9983 6.57227C14.409 6.57227 13.0143 7.57074 12.5874 9.01426C12.4742 9.34187 12.4113 9.6831 12.4008 10.0275C12.4023 10.2356 12.4016 11.1996 12.4011 11.8413C12.4009 12.0682 12.4008 12.2548 12.4008 12.3533V15.5315C12.4008 15.5609 12.4007 15.5904 12.4007 15.62C12.4006 15.9729 12.4004 16.3403 12.4218 16.6906C12.4376 17.033 12.4929 17.3728 12.5869 17.7039C12.794 18.3999 13.2395 19.0117 13.8541 19.4438C15.1113 20.3791 16.8848 20.3791 18.142 19.4438C18.7549 19.0103 19.1999 18.399 19.4086 17.7039C19.5022 17.3727 19.5576 17.033 19.574 16.6906ZM11.3338 14.9939C11.3338 14.6467 11.0353 14.3653 10.6671 14.3653C10.299 14.3653 10.0005 14.6467 10.0005 14.9939C10.0005 15.0203 10.0022 15.0463 10.0056 15.0718V16.5121C10.0053 16.5236 10.0042 16.5351 10.0031 16.5468L10.0031 16.5468L10.0031 16.5468C10.0018 16.5607 10.0005 16.575 10.0005 16.5901C9.99678 19.4829 12.2943 21.9185 15.3417 22.2524V24.1633H12.8244V24.1711C12.8163 24.1708 12.8082 24.1707 12.8 24.1707C12.4318 24.1707 12.1333 24.4521 12.1333 24.7993C12.1333 25.1465 12.4318 25.4279 12.8 25.4279C12.8082 25.4279 12.8163 25.4277 12.8244 25.4275V25.428H19.1737V25.4273C19.1832 25.4277 19.1927 25.4279 19.2023 25.4279C19.5705 25.4279 19.869 25.1465 19.869 24.7993C19.869 24.4521 19.5705 24.1707 19.2023 24.1707C19.1927 24.1707 19.1832 24.1709 19.1737 24.1713V24.1633H16.6617V22.2524C19.7027 21.9104 21.9917 19.4777 21.9896 16.5901H21.9899H21.9979V15.0421C21.9992 15.0262 21.9998 15.0101 21.9998 14.9939C21.9998 14.6467 21.7013 14.3653 21.3332 14.3653C20.965 14.3653 20.6665 14.6467 20.6665 14.9939L20.6665 15.001L20.6619 15.001V17.0955H20.6459C20.4485 19.3317 18.5072 21.0747 16.1287 21.1511H15.8593C13.4816 21.0734 11.5413 19.331 11.3431 17.0955H11.3306V16.8591C11.3305 16.8483 11.3297 16.8375 11.3289 16.8266C11.328 16.8148 11.3271 16.803 11.3271 16.7912V16.7862H11.3306V15.0558C11.3327 15.0354 11.3338 15.0148 11.3338 14.9939Z" fill="#8C8C8E"/>
</svg>
